<svg xmlns="http://www.w3.org/2000/svg" xmlns:xlink="http://www.w3.org/1999/xlink" version="1.1" x="0px" y="0px" viewBox="0 0 100 125" style="enable-background:new 0 0 100 100;" xml:space="preserve"><path d="M2.948,18.488v63.024h94.104V18.488H2.948z M3.812,80.648V69.922l22.859-12.149c0.484,0.827,1.043,1.605,1.67,2.323  L3.894,80.648H3.812z M3.915,19.352l24.988,20.189c-0.829,0.852-1.559,1.802-2.171,2.83L3.812,30.104V19.352H3.915z M44.625,35.735  c-1.008-0.339-2.064-0.575-3.155-0.696l1.7-15.687h5.955L44.625,35.735z M55.939,19.352h8.68L49.044,38.099  c-0.648-0.5-1.336-0.949-2.061-1.34L55.939,19.352z M38.932,34.969c-0.946,0.052-1.868,0.191-2.76,0.409l-5.204-16.026h6.376  L38.932,34.969z M33.465,36.319c-0.908,0.416-1.767,0.919-2.568,1.499L15.782,19.352h9.042L33.465,36.319z M25.405,45.244  c-0.365,1.076-0.612,2.207-0.727,3.376L3.812,46.325v-7.727L25.405,45.244z M24.659,51.411c0.099,1.174,0.331,2.31,0.682,3.393  L3.812,61.653v-7.727L24.659,51.411z M30.517,62.144c0.842,0.65,1.754,1.214,2.724,1.677l-8.989,16.826h-8.663L30.517,62.144z   M36.07,64.842c0.885,0.222,1.8,0.367,2.739,0.426l-1.466,15.38h-6.049L36.07,64.842z M41.486,65.204  c1.035-0.116,2.038-0.335,3-0.649l4.768,16.092h-6.085L41.486,65.204z M46.784,63.591c0.769-0.401,1.499-0.865,2.184-1.387  l15.644,18.444H55.93L46.784,63.591z M51.184,60.138c0.712-0.81,1.339-1.697,1.868-2.646l42.77,23.156h-19.1L51.184,60.138z   M54.198,54.88c0.354-1.074,0.592-2.201,0.697-3.367l41.293,4.392v11.78L54.198,54.88z M54.867,48.454L54.867,48.454  c-0.115-1.053-0.338-2.074-0.658-3.051l41.978-12.831v12.005L54.867,48.454z M52.801,42.318c-0.47-0.782-1.008-1.518-1.607-2.2  l24.983-20.766h19.635L52.801,42.318z"/><text x="0" y="115" fill="#000000" font-size="5px" font-weight="bold" font-family="'Helvetica Neue', Helvetica, Arial-Unicode, Arial, Sans-serif">Created by Randomhero</text><text x="0" y="120" fill="#000000" font-size="5px" font-weight="bold" font-family="'Helvetica Neue', Helvetica, Arial-Unicode, Arial, Sans-serif">from the Noun Project</text></svg>