<svg xmlns="http://www.w3.org/2000/svg" xmlns:xlink="http://www.w3.org/1999/xlink" xmlns:serif="http://www.serif.com/" viewBox="0 0 101 125" version="1.1" xml:space="preserve" style="" x="0px" y="0px" fill-rule="evenodd" clip-rule="evenodd" stroke-linejoin="round" stroke-miterlimit="1.41421"><rect serif:id="Page 60" x="0.5" y="0" width="100" height="100" style="" fill="none"/><path d="M18.833,80.672l-13.333,0l33.128,-20.775c-0.645,-0.785 -1.214,-1.634 -1.698,-2.536l-31.43,13.626l0,-7.677l30.255,-8.781c-0.293,-0.968 -0.494,-1.975 -0.595,-3.011l-29.66,2.044l0,-7.16l29.662,2.069c0.1,-1.032 0.302,-2.035 0.593,-2.999l-30.255,-8.775l0,-7.653l31.417,13.621c0.487,-0.912 1.062,-1.77 1.713,-2.563l-33.13,-20.776l13.27,0l22.022,18.613c0.78,-0.642 1.624,-1.209 2.52,-1.691l-14.297,-16.922l7.719,0l9.431,15.736c0.96,-0.291 1.959,-0.492 2.987,-0.592l-2.222,-15.144l7.14,0.002l-2.222,15.144c1.028,0.1 2.027,0.301 2.987,0.591l9.431,-15.735l7.719,0l-14.297,16.921c0.896,0.483 1.74,1.05 2.52,1.692l22.022,-18.613l13.27,0l-33.13,20.776c0.651,0.793 1.226,1.65 1.713,2.562l31.417,-13.621l0,7.654l-30.255,8.775c0.291,0.963 0.493,1.966 0.593,2.998l29.662,-2.068l0,7.159l-29.66,-2.044c-0.101,1.037 -0.302,2.044 -0.595,3.012l30.255,8.781l0,7.677l-31.43,-13.626c-0.484,0.902 -1.053,1.751 -1.698,2.536l33.128,20.775l-13.333,0l-21.952,-18.616c-0.785,0.647 -1.635,1.218 -2.537,1.703l14.307,16.913l-7.68,0l-9.451,-15.738c-0.965,0.294 -1.969,0.496 -3.003,0.597l2.219,15.141l-7.14,-0.002l2.219,-15.14c-1.034,-0.102 -2.038,-0.304 -3.003,-0.598l-9.451,15.738l-7.68,0l14.307,-16.912c-0.902,-0.485 -1.752,-1.057 -2.537,-1.703l-21.952,18.615Z"/><text x="0" y="115" fill="#000000" font-size="5px" font-weight="bold" font-family="'Helvetica Neue', Helvetica, Arial-Unicode, Arial, Sans-serif">Created by Zach Bogart</text><text x="0" y="120" fill="#000000" font-size="5px" font-weight="bold" font-family="'Helvetica Neue', Helvetica, Arial-Unicode, Arial, Sans-serif">from the Noun Project</text></svg>