<svg xmlns="http://www.w3.org/2000/svg" xmlns:xlink="http://www.w3.org/1999/xlink" version="1.1" x="0px" y="0px" viewBox="0 0 50 62.5" enable-background="new 0 0 50 50" xml:space="preserve"><g><path fill-rule="evenodd" clip-rule="evenodd" d="M24.761,28.051c2.088-1.212,4.809-1.213,6.909-0.002   c0.422,0.244,0.566,0.783,0.323,1.206l-1.721,2.981c0.231,0.264,0.412,0.573,0.528,0.912h3.439c0.487,0,0.883,0.396,0.883,0.883   c0,2.458-1.323,4.75-3.453,5.983c-0.42,0.247-0.96,0.102-1.206-0.322l-1.719-2.977c-0.171,0.034-0.347,0.051-0.528,0.051   c-0.181,0-0.358-0.018-0.529-0.051l-1.72,2.977c-0.244,0.425-0.787,0.568-1.206,0.322c-2.13-1.232-3.453-3.525-3.453-5.981   c0-0.488,0.396-0.884,0.883-0.884h3.438c0.116-0.339,0.297-0.648,0.528-0.912l-1.719-2.98   C24.194,28.833,24.338,28.294,24.761,28.051 M16.714,12.025c0.209,0.179,0.487,0.253,0.754,0.199   c1.32-0.262,2.405,0.198,2.769,1.181c0.167,0.457,0.679,0.693,1.132,0.525c0.46-0.169,0.694-0.675,0.525-1.134   c-0.565-1.537-2.032-2.453-3.782-2.411c-0.157-0.848-0.573-1.62-1.218-2.232c-1.085-1.04-2.713-1.516-4.472-1.348   c-0.484,0.05-0.838,0.484-0.788,0.968c0.05,0.489,0.498,0.828,0.969,0.79c1.24-0.135,2.36,0.189,3.071,0.864   c0.524,0.501,0.78,1.154,0.74,1.883C16.396,11.583,16.507,11.848,16.714,12.025z M22.901,8.699c0.637,0.6,0.963,1.45,0.919,2.395   c-0.014,0.273,0.101,0.541,0.314,0.719c0.211,0.175,0.492,0.243,0.764,0.185c1.312-0.3,2.361,0.229,2.735,1.376   c0.155,0.47,0.651,0.712,1.116,0.567c0.463-0.153,0.715-0.651,0.565-1.115c-0.551-1.684-1.976-2.677-3.714-2.677h-0.066   c-0.156-1.061-0.645-2.009-1.424-2.739c-1.098-1.027-2.621-1.495-4.293-1.296c-0.483,0.056-0.83,0.494-0.774,0.978   c0.056,0.486,0.507,0.834,0.979,0.775C21.165,7.736,22.188,8.032,22.901,8.699z M26.966,6.643c0.082,0.439,0.486,0.768,0.926,0.718   c1.775-0.117,3.397,0.468,4.542,1.656c1.045,1.081,1.557,2.538,1.406,3.995c-0.05,0.484,0.304,0.919,0.788,0.969   c0.49,0.036,0.918-0.292,0.97-0.79c0.201-1.973-0.488-3.941-1.893-5.4c-1.348-1.395-3.163-2.165-5.175-2.211   c-0.802-2.898-2.978-4.912-5.951-5.448c-2.97-0.534-5.975,0.589-7.786,2.838C12.16,0.907,9.13,0.698,5.773,2.348   C5.335,2.564,5.156,3.094,5.372,3.532C5.585,3.97,6.113,4.145,6.553,3.934c3.034-1.495,5.514-1.188,7.795,0.979   c0.193,0.185,0.45,0.273,0.73,0.237c0.263-0.038,0.499-0.191,0.635-0.42c1.312-2.181,3.953-3.322,6.554-2.86   C24.732,2.315,26.489,4.099,26.966,6.643z M25.627,34.914h-2.476c0.209,1.194,0.838,2.283,1.766,3.061l1.24-2.144   C25.939,35.562,25.73,35.248,25.627,34.914z M27.248,34.03c0,0.525,0.422,0.969,0.967,0.969c0.526,0,0.964-0.427,0.964-0.969   c0-0.546-0.45-0.965-0.964-0.965C27.689,33.065,27.248,33.502,27.248,34.03z M27.685,31.349c0.346-0.058,0.715-0.074,1.059,0   l1.24-2.146c-1.134-0.412-2.412-0.412-3.537,0L27.685,31.349z M30.8,34.914c-0.119,0.338-0.289,0.634-0.529,0.915l1.24,2.146   c0.928-0.778,1.557-1.868,1.767-3.061H30.8z M17.448,16.865c2.444,8.53-0.175,19.689-3.402,31.369h-1.453   c-0.486,0-0.882,0.396-0.882,0.885c0,0.486,0.396,0.882,0.882,0.882h31.245c0.486,0,0.882-0.396,0.882-0.882   c0-0.489-0.396-0.885-0.882-0.885h-1.453c-2.611-9.395-6.064-22.085-3.403-31.369c0.162-0.565-0.26-1.127-0.848-1.127H18.296   C17.71,15.737,17.287,16.302,17.448,16.865z"/></g><text x="0" y="65" fill="#000000" font-size="5px" font-weight="bold" font-family="'Helvetica Neue', Helvetica, Arial-Unicode, Arial, Sans-serif">Created by Georgiana Ionescu</text><text x="0" y="70" fill="#000000" font-size="5px" font-weight="bold" font-family="'Helvetica Neue', Helvetica, Arial-Unicode, Arial, Sans-serif">from the Noun Project</text></svg>