<svg xmlns="http://www.w3.org/2000/svg" xmlns:xlink="http://www.w3.org/1999/xlink" version="1.1" x="0px" y="0px" viewBox="0 0 100 125" style="enable-background:new 0 0 100 100;" xml:space="preserve"><g><path d="M50,76.156c-14.423,0-26.156-11.733-26.156-26.156S35.577,23.844,50,23.844S76.156,35.577,76.156,50   S64.423,76.156,50,76.156z M50,27.844c-12.217,0-22.156,9.939-22.156,22.156S37.783,72.156,50,72.156S72.156,62.217,72.156,50   S62.217,27.844,50,27.844z"/></g><g><g><path d="M50,19.141c-1.104,0-2-0.896-2-2V7c0-1.104,0.896-2,2-2s2,0.896,2,2v10.141C52,18.245,51.104,19.141,50,19.141z"/></g><g><path d="M50,95c-1.104,0-2-0.896-2-2V82.859c0-1.104,0.896-2,2-2s2,0.896,2,2V93C52,94.104,51.104,95,50,95z"/></g></g><g><g><path d="M33.572,23.543c-0.691,0-1.363-0.358-1.734-1l-5.07-8.782c-0.552-0.957-0.225-2.18,0.732-2.732    c0.959-0.553,2.179-0.225,2.732,0.732l5.07,8.782c0.552,0.957,0.225,2.18-0.732,2.732C34.255,23.457,33.911,23.543,33.572,23.543z    "/></g><g><path d="M71.502,89.239c-0.691,0-1.363-0.358-1.734-1l-5.07-8.782c-0.552-0.957-0.225-2.18,0.732-2.732    c0.958-0.554,2.179-0.225,2.732,0.732l5.07,8.782c0.552,0.957,0.225,2.18-0.732,2.732C72.185,89.153,71.841,89.239,71.502,89.239z    "/></g></g><g><g><path d="M21.541,35.57c-0.339,0-0.683-0.086-0.998-0.268l-8.782-5.07c-0.957-0.553-1.284-1.775-0.732-2.732    c0.553-0.957,1.773-1.285,2.732-0.732l8.782,5.07c0.957,0.553,1.284,1.775,0.732,2.732C22.904,35.212,22.232,35.57,21.541,35.57z"/></g><g><path d="M87.237,73.5c-0.339,0-0.683-0.086-0.998-0.268l-8.782-5.07c-0.957-0.553-1.284-1.775-0.732-2.732    c0.553-0.957,1.772-1.285,2.732-0.732l8.782,5.07c0.957,0.553,1.284,1.775,0.732,2.732C88.601,73.142,87.929,73.5,87.237,73.5z"/></g></g><g><g><path d="M17.141,52H7c-1.104,0-2-0.896-2-2s0.896-2,2-2h10.141c1.104,0,2,0.896,2,2S18.245,52,17.141,52z"/></g><g><path d="M93,52H82.859c-1.104,0-2-0.896-2-2s0.896-2,2-2H93c1.104,0,2,0.896,2,2S94.104,52,93,52z"/></g></g><g><g><path d="M12.763,73.5c-0.691,0-1.363-0.358-1.734-1c-0.552-0.957-0.225-2.18,0.732-2.732l8.782-5.07    c0.958-0.553,2.179-0.225,2.732,0.732c0.552,0.957,0.225,2.18-0.732,2.732l-8.782,5.07C13.445,73.414,13.102,73.5,12.763,73.5z"/></g><g><path d="M78.459,35.57c-0.691,0-1.363-0.358-1.734-1c-0.552-0.957-0.225-2.18,0.732-2.732l8.782-5.07    c0.959-0.553,2.179-0.225,2.732,0.732c0.552,0.957,0.225,2.18-0.732,2.732l-8.782,5.07C79.142,35.484,78.798,35.57,78.459,35.57z"/></g></g><g><g><path d="M28.498,89.239c-0.339,0-0.683-0.086-0.998-0.268c-0.957-0.553-1.284-1.775-0.732-2.732l5.07-8.782    c0.553-0.957,1.772-1.286,2.732-0.732c0.957,0.553,1.284,1.775,0.732,2.732l-5.07,8.782    C29.861,88.881,29.189,89.239,28.498,89.239z"/></g><g><path d="M66.428,23.543c-0.339,0-0.683-0.086-0.998-0.268c-0.957-0.553-1.284-1.775-0.732-2.732l5.07-8.782    c0.553-0.957,1.772-1.285,2.732-0.732c0.957,0.553,1.284,1.775,0.732,2.732l-5.07,8.782    C67.791,23.185,67.119,23.543,66.428,23.543z"/></g></g><text x="0" y="115" fill="#000000" font-size="5px" font-weight="bold" font-family="'Helvetica Neue', Helvetica, Arial-Unicode, Arial, Sans-serif">Created by Maxim Kulikov</text><text x="0" y="120" fill="#000000" font-size="5px" font-weight="bold" font-family="'Helvetica Neue', Helvetica, Arial-Unicode, Arial, Sans-serif">from the Noun Project</text></svg>